<?xml version="1.0" encoding="utf-8"?>
<!-- Generator: Adobe Illustrator 18.1.1, SVG Export Plug-In . SVG Version: 6.00 Build 0)  -->
<svg version="1.1" id="Layer_1" xmlns="http://www.w3.org/2000/svg" xmlns:xlink="http://www.w3.org/1999/xlink" x="0px" y="0px"
	 viewBox="0 0 30 30" enable-background="new 0 0 30 30" xml:space="preserve">
<path fill="#FFFFFF" d="M5.4,26.6h17.4c0.4,0,0.7,0.1,0.8,0.2c-0.1,0.1-0.4,0.2-0.8,0.2H10.6c-1,0-1.7,0.5-1.7,1.1s0.7,1.1,1.7,1.1
	h13.5c1,0,1.7-0.8,1.7-1.7v-3.9c0-1-0.8-1.7-1.7-1.7h-4.8c-0.5,0-0.9-0.4-0.9-0.9v-3.5v-2.6c0-0.5,0.4-0.9,0.9-0.9h1.7h0.4h0.4v-3.5
	h-0.4h-0.4h-1.7c-1,0-1.7,0.8-1.7,1.7v2.6v2.6v3.5c0,1,0.8,1.7,1.7,1.7h4.8c0.5,0,0.9,0.4,0.9,0.9v3.9c0,0.5-0.4,0.9-0.9,0.9H10.6
	c-0.4,0-0.7-0.1-0.8-0.2c0.1-0.1,0.4-0.2,0.8-0.2h12.2c1,0,1.7-0.5,1.7-1.1s-0.7-1.1-1.7-1.1H5.4c-0.4,0-0.7-0.1-0.8-0.2
	c0.1-0.1,0.4-0.2,0.8-0.2h17.4c1,0,1.7-0.5,1.7-1.1s-0.7-1.1-1.7-1.1h-10c-0.4,0-0.7-0.1-0.8-0.2c0.1-0.1,0.4-0.2,0.8-0.2h2.6
	c1,0,1.7-0.8,1.7-1.7V10.4h0.1c0.7,0,1.2-0.7,1.2-1.7V3.9c0-1-0.7-1.7-1.5-1.7h-0.7h-0.4h-0.4h-0.2c-0.2,0-0.5,0.1-0.7,0.2
	c-0.1-0.8-0.7-1.5-1.5-1.5h-0.2h-0.9v0.1c-1.5,0.4-2.6,1.8-2.6,3.4s1.1,3,2.6,3.4v0.1h0.9H13c0.8,0,1.4-0.7,1.5-1.5
	c0.2,0.1,0.4,0.2,0.7,0.2h0.2h0.8h0.1V7v3.4v10.5c0,0.5-0.4,0.9-0.9,0.9h-2.6c-0.3,0-0.6,0.1-0.9,0.1v-3.2h0.1
	c0.7,0,1.2-0.7,1.2-1.7v-4.8c0-1-0.7-1.7-1.5-1.7H11h-0.4h-0.4H9.9c-0.2,0-0.5,0.1-0.7,0.2C9.2,9.8,8.5,9.1,7.8,9.1H7.6H6.7v0.1
	C5.2,9.6,4.1,11,4.1,12.6s1.1,3,2.6,3.4v0.1h0.9h0.2c0.8,0,1.4-0.7,1.5-1.5c0.2,0.1,0.4,0.2,0.7,0.2h0.2H11H11v0.5v3.4v3.9h0
	c0,0.1,0,0.1,0,0.2c0,0.6,0.7,1.1,1.7,1.1h10c0.4,0,0.7,0.1,0.8,0.2c-0.1,0.1-0.4,0.2-0.8,0.2H5.4c-1,0-1.7,0.5-1.7,1.1
	S4.4,26.6,5.4,26.6z M18.4,12.2c0-0.5,0.4-0.9,0.9-0.9h1.7V13h-1.7c-0.3,0-0.6,0.1-0.9,0.2V12.2z M17.6,3.9v4.8
	c0,0.5-0.2,0.8-0.3,0.9h-0.1v-4c0.1-0.3,0-0.5,0-0.8c0-0.1,0-0.3,0-0.4c0-0.1,0-0.3,0-0.4c0-0.3,0-0.6,0-0.8
	C17.4,3.2,17.6,3.5,17.6,3.9z M13.7,3.9v0.9v1.3c0,0.5-0.3,0.9-0.7,0.9h-0.2c-0.3,0-0.6-0.1-0.9-0.2c-1-0.4-1.7-1.3-1.7-2.5
	s0.7-2.1,1.7-2.5c0.3-0.1,0.6-0.2,0.9-0.2H13c0.4,0,0.7,0.4,0.7,0.9V3.9z M16.2,5.5c0,0-0.1,0-0.1,0.1c-0.1,0-0.3,0.1-0.7,0.1h-0.2
	c-0.4,0-0.7-0.4-0.7-0.9V3.9c0-0.5,0.3-0.9,0.7-0.9h0.2c0.2,0,0.4,0,0.5,0c0.2,0,0.3,0.1,0.4,0.1c0,0,0,0,0,0.1c0,0.1,0,0.4,0,0.6
	c0,0.2,0,0.3,0,0.5s0,0.3,0,0.5c0,0.1,0,0.3,0,0.4C16.3,5.3,16.3,5.3,16.2,5.5C16.3,5.4,16.3,5.4,16.2,5.5z M8.4,12.2V13v1.3
	c0,0.5-0.3,0.9-0.7,0.9H7.6c-0.3,0-0.6-0.1-0.9-0.2c-1-0.4-1.7-1.3-1.7-2.5s0.7-2.1,1.7-2.5C7,10,7.2,10,7.6,10h0.2
	c0.4,0,0.7,0.4,0.7,0.9V12.2z M11,13.7C11,13.7,11,13.7,11,13.7c0,0.1-0.1,0.1-0.1,0.1c-0.1,0-0.3,0.1-0.7,0.1H9.9
	c-0.4,0-0.7-0.4-0.7-0.9v-0.9c0-0.5,0.3-0.9,0.7-0.9h0.2c0.2,0,0.4,0,0.5,0c0.2,0,0.3,0.1,0.4,0.1c0,0,0,0,0,0.1c0,0.1,0,0.4,0,0.6
	c0,0.2,0,0.3,0,0.5s0,0.3,0,0.5c0,0.1,0,0.3,0,0.4C11.1,13.6,11.1,13.6,11,13.7z M12.3,12.2V17c0,0.5-0.2,0.8-0.3,0.9h-0.1v-4
	c0.1-0.3,0-0.5,0-0.8c0-0.1,0-0.3,0-0.4s0-0.3,0-0.4c0-0.3,0-0.6,0-0.8C12.2,11.5,12.3,11.8,12.3,12.2z"/>
</svg>
